<?xml version="1.0" encoding="utf-8"?>
<!-- Generator: Adobe Illustrator 19.0.0, SVG Export Plug-In . SVG Version: 6.00 Build 0)  -->
<svg version="1.1" id="Layer_1" xmlns="http://www.w3.org/2000/svg" xmlns:xlink="http://www.w3.org/1999/xlink" x="0px" y="0px"
	 viewBox="-58 134 495 525" style="enable-background:new -58 134 495 525;" xml:space="preserve">
<style type="text/css">
	.st0{fill:#FFFFFF;}
	.st1{fill:none;}
	.st2{enable-background:new    ;}
</style>
<polygon class="st0" points="60.8,254.4 43.1,254.4 119.3,143.4 136.9,143.4 "/>
<polygon class="st0" points="167.9,254.4 150.3,254.4 226.4,143.4 244,143.4 "/>
<rect x="121.6" y="143.4" class="st0" width="15.6" height="111"/>
<rect x="150.3" y="143.4" class="st0" width="15.6" height="111"/>
<polygon class="st0" points="249,387.9 231.4,387.9 307.5,276.9 325.2,276.9 "/>
<polygon class="st0" points="247,387.9 231.4,387.9 231.4,285.6 247,277.6 "/>
<polygon class="st0" points="178.4,387.9 160.8,387.9 236.9,276.9 247,276.9 246.8,288.2 "/>
<rect x="253.3" y="143.4" class="st0" width="15.6" height="111"/>
<rect x="160.8" y="276.9" class="st0" width="15.6" height="111"/>
<rect x="331.3" y="276.9" class="st0" width="15.6" height="111"/>
<rect x="356.8" y="276.9" class="st0" width="15.6" height="111"/>
<rect x="82.2" y="206.1" class="st0" width="44" height="15.6"/>
<rect x="361.2" y="372.3" class="st0" width="52.8" height="15.6"/>
<rect x="361.2" y="324.6" class="st0" width="52.8" height="15.6"/>
<rect x="361.2" y="276.9" class="st0" width="52.8" height="15.6"/>
<path class="st0" d="M95.6,288.7c23.5,0,42.7,19.1,42.7,42.7s-19.1,42.7-42.7,42.7S52.9,355,52.9,331.4S72.1,288.7,95.6,288.7
	 M95.6,273.7c-31.8,0-57.7,25.8-57.7,57.7s25.8,57.7,57.7,57.7s57.7-25.8,57.7-57.7S127.5,273.7,95.6,273.7L95.6,273.7z"/>
<path class="st0" d="M371,198.9c0-30.6-25.4-55.3-56.8-55.5l0,0h-18.3h-15.6v15.5v79.9v15.6h15.6h18.6l0,0
	C345.7,254.1,371,229.4,371,198.9z M314.5,238.9L314.5,238.9l-18.6-0.1v-79.9h18l0,0c22.9,0,41.6,17.9,41.6,40
	C355.5,220.8,337.1,238.6,314.5,238.9z"/>
<path class="st0" d="M54,198.9c0-30.6-25.4-55.3-56.8-55.5l0,0h-18.3h-15.6v15.5v79.9v15.6h15.6h18.6l0,0
	C28.7,254.1,54,229.4,54,198.9z M-2.5,238.9L-2.5,238.9l-18.6-0.1v-79.9h18l0,0c22.9,0,41.6,17.9,41.6,40
	C38.5,220.8,20.1,238.6-2.5,238.9z"/>
<path class="st0" d="M32.8,355.1c0-11.4-5.8-21.4-14.6-27.3c5-5.4,8.1-12.6,8.1-20.6c0-16.7-13.5-30.3-30.2-30.3l0,0H-4l0,0l0,0
	h-17.1h-11.3h-4.3v111h4.3h11.3H0.1l0,0C18.2,387.9,32.8,373.2,32.8,355.1z M-3.9,291.9L-3.9,291.9c8.4,0,15.2,6.9,15.2,15.3
	c0,8.4-6.9,15.3-15.3,15.3l0,0h-17.1v-30.6H-3.9z M0,372.6L0,372.6h-21.1v-35H0l0,0c9.7,0,17.5,7.9,17.5,17.5S9.7,372.6,0,372.6z"/>
<rect x="-40.8" y="406.9" class="st1" width="413.2" height="353"/>
<g class="st2">
	<path class="st0" d="M-36.7,412.9h35.6v97.9h-15.7v-83.2h-19.9V412.9z"/>
	<path class="st0" d="M49.8,497.1c8.7,0,15.1-2.9,19.2-8.8c4.1-5.9,6.2-13.8,6.3-23.8c-2.3,2.6-5.7,5.1-10.1,7.3
		c-4.4,2.3-9.2,3.4-14.6,3.4c-8.8,0-16.1-2.9-22.1-8.8c-5.9-5.8-8.9-13.6-8.9-23.2s3.2-17.4,9.6-23.3c6.4-5.9,14.4-8.8,24.1-8.8
		c15.7,0,26.5,7,32.5,21c3.4,8,5,17.1,5,27.2c0,10.1-1.1,18.5-3.2,25.2c-2.1,6.7-5.1,12-8.8,16c-7.3,7.7-16.2,11.5-26.8,11.5
		c-10.6,0-20.2-3.3-28.8-9.9l8.3-12.2c2.1,1.9,5,3.5,8.6,5C43.8,496.3,47,497.1,49.8,497.1z M52.8,460.7c5.6,0,10.4-1.6,14.1-4.7
		c3.8-3.1,5.7-7.2,5.7-12.2c0-5-1.8-9.3-5.5-12.9c-3.6-3.6-8.2-5.4-13.6-5.4s-10,1.6-13.5,4.8c-3.5,3.2-5.3,7.3-5.3,12.4
		s1.6,9.3,4.8,12.7C42.7,458.9,47.2,460.7,52.8,460.7z"/>
	<path class="st0" d="M146.4,471.2v-17.9h15.7v17.9h11.8v15h-11.8v24.6h-15.7v-24.6h-42v-14.6l36-58.7h18.1L123,471.2H146.4z"/>
	<path class="st0" d="M183.9,441.1v-28.1h68.9v14.7l-41.4,83.2h-18.2l40.5-82.9h-34.7v13.2H183.9z"/>
	<path class="st0" d="M263.2,476.3v-14.7h46.5v14.7H263.2z"/>
</g>
<g class="st2">
	<path class="st0" d="M11.2,572.1c2.8-3.8,4.2-7.7,4.2-11.6s-1.5-7.3-4.5-10c-3-2.8-6.8-4.1-11.3-4.1c-8,0-14.7,4.1-20,12.3
		l-13.3-7.7c4.3-6.4,9-11.3,14.2-14.6c5.2-3.3,11.9-4.9,20-4.9c8.2,0,15.3,2.6,21.5,7.8c6.2,5.2,9.2,12.2,9.2,21.2
		c0,5-1.3,9.8-3.9,14.4c-2.6,4.6-7.4,10.5-14.4,17.6l-23,23.4h44.4v15.8h-66.9v-14L-3,588C3.7,581.2,8.4,576,11.2,572.1z"/>
	<path class="st0" d="M59.9,619.1c-6.6-9.2-9.9-21.5-9.9-36.9c0-15.4,3.3-27.7,9.9-36.9c6.6-9.2,16.6-13.8,30-13.8
		c13.3,0,23.3,4.6,30,13.8c6.6,9.2,9.9,21.5,9.9,36.9c0,15.4-3.3,27.7-9.9,36.9c-6.6,9.2-16.6,13.8-30,13.8
		C76.5,632.9,66.5,628.3,59.9,619.1z M71.7,555.8c-3.9,6.7-5.8,15.5-5.8,26.5c0,10.9,1.9,19.7,5.8,26.5c3.9,6.7,9.9,10.1,18.1,10.1
		c8.2,0,14.2-3.3,18-10c3.8-6.7,5.7-15.5,5.7-26.5c0-11-1.9-19.9-5.7-26.5c-3.8-6.7-9.8-10-18-10C81.6,545.7,75.6,549,71.7,555.8z"
		/>
	<path class="st0" d="M142.1,533.9h35.6v97.9h-15.7v-83.2h-19.9V533.9z"/>
	<path class="st0" d="M240.9,546.9c-8.7,0-15.1,2.9-19.2,8.8c-4.1,5.9-6.2,13.8-6.3,23.8c2.3-2.6,5.7-5.1,10.1-7.4
		c4.4-2.3,9.2-3.4,14.6-3.4c8.8,0,16.1,2.9,22,8.8c5.9,5.8,8.9,13.6,8.9,23.2s-3.2,17.4-9.6,23.3c-6.4,5.9-14.4,8.8-24.2,8.8
		c-15.7,0-26.5-7-32.5-21c-3.4-8-5-17.1-5-27.2s1.1-18.5,3.2-25.2c2.1-6.7,5.1-12,8.8-16c7.3-7.7,16.2-11.5,26.8-11.5
		c10.6,0,20.2,3.3,28.8,9.9l-8.3,12.2c-2.1-1.9-5-3.5-8.6-5C246.9,547.7,243.7,546.9,240.9,546.9z M237.9,583.3
		c-5.6,0-10.4,1.6-14.1,4.7c-3.8,3.1-5.7,7.2-5.7,12.2c0,5,1.8,9.3,5.5,12.9c3.6,3.6,8.2,5.4,13.7,5.4c5.5,0,10.1-1.6,13.7-4.8
		c3.6-3.2,5.5-7.3,5.5-12.3c0-5-1.7-9.2-5-12.7C248,585.1,243.5,583.3,237.9,583.3z"/>
</g>
</svg>
